<?xml version="1.0" encoding="utf-8"?>
<!-- Generator: Adobe Illustrator 24.2.1, SVG Export Plug-In . SVG Version: 6.00 Build 0)  -->
<svg version="1.2" baseProfile="tiny" id="Layer_1" xmlns="http://www.w3.org/2000/svg" xmlns:xlink="http://www.w3.org/1999/xlink"
	 x="0px" y="0px" viewBox="0 0 514.03 513.76" overflow="visible" xml:space="preserve">
<g>
	<g>
		<path fill="#333333" d="M509.84,128.89c-3.44-33.85-16.42-63.74-41.56-87.72c-26.43-25.25-58.79-36.4-94.25-38.27
			C313.62-0.39,170.19-2.48,119.8,5.74C62.27,15.1,24.52,48.73,8.61,105.55C-3.64,149.27-1.21,350.82,5.94,394.1
			c9.76,59.1,44.7,96.99,103.26,112.1c40.57,10.44,239.81,9.09,284.53,1.87c59.14-9.58,97.22-44.33,112.58-102.79
			C518.06,360.39,513.95,169.36,509.84,128.89z M462.54,385.76c-6.86,44.85-36.68,72.68-81.81,77.62
			c-41.47,4.52-226.63,6.99-265.08-3.74c-36.79-10.25-57.83-35.57-63.93-72.61c-5.83-35.35-7.27-212.09-0.08-259.38
			c6.77-44.51,36.57-72.27,81.43-77.32c45.54-5.09,209.4-5.65,253.02,1.08c44.81,6.81,72.57,36.7,77.49,81.92
			C468.17,175.53,469.47,340.42,462.54,385.76z M257.06,125.07C184.2,125.04,125.22,184.02,125.28,257
			c0.02,72.57,58.84,131.52,131.46,131.63c72.94,0.15,132.08-58.8,132.12-131.63C388.9,184.02,329.98,125.07,257.06,125.07z
			 M256.15,342.07c-46.46-0.08-84.31-38.49-84.3-85.55c0.02-47.02,38.17-84.91,85.53-84.91c47,0,84.91,38.23,84.91,85.55
			C342.26,304.44,303.99,342.1,256.15,342.07z M424.78,120.13c-0.04,17.13-13.69,30.71-30.86,30.71c-17.17,0-30.73-13.5-30.84-30.67
			c-0.13-17.36,13.73-31.16,31.14-31.05C411.29,89.24,424.85,103,424.78,120.13z"/>
	</g>
</g>
</svg>
